<?xml version="1.0" standalone="no"?><!DOCTYPE svg PUBLIC "-//W3C//DTD SVG 1.1//EN" "http://www.w3.org/Graphics/SVG/1.1/DTD/svg11.dtd"><svg t="1747618838606" class="icon" viewBox="0 0 1024 1024" version="1.1" xmlns="http://www.w3.org/2000/svg" p-id="3313" xmlns:xlink="http://www.w3.org/1999/xlink" width="200" height="200"><path d="M864.487849 239.577358c-35.086491 22.798491-77.437585 19.185509-111.287547-0.154566l-85.900076 222.092076c0-0.579623 0.193208-0.966038 0.386416-1.54566l-13.717736 35.936603-5.216604 13.717736c-2.511698 6.569057-1.932075 14.297358 2.31849 22.412076-4.250566 2.646943-7.786264 5.545057-10.896905 8.597735a124.193811 124.193811 0 0 1 48.997434 14.645133c24.479396 13.331321 44.708226 31.917887 58.039547 54.619773 8.327245-16.055547 7.399849-28.440151 4.714264-36.516226 2.704906-0.579623 5.216604-1.738868 7.341887-2.704906 4.057358-1.932075 7.148679-4.443774 9.660377-7.341887 1.54566-1.932075 2.704906-4.057358 3.670944-6.375849l19.127547-49.847547 7.148679-18.354717 110.379472-285.483472c-13.968906 13.118792-28.324226 25.638642-44.766189 36.323019zM802.931925 786.489962c0.193208 0.386415 0.193208 0.77283 0 0.966038v80.37434c0.966038 15.263396-5.409811 30.913208-19.70717 40.766792-0.386415 0.386415-0.966038 0.77283-1.352453 0.966038-2.511698 1.738868-5.409811 3.284528-8.307925 4.443773-67.236226 27.435472-149.542642 44.630943-227.59849 54.291321-115.151698 13.524528-220.643019 6.955472-314.348679-24.730566-79.601509-23.378113-131.187925-59.701132-147.996982-111.86717-2.898113-8.69434-4.250566-17.775094-4.250566-26.662641v-83.852076c-0.579623-20.673208 6.182642-41.153208 19.320755-57.962264 25.889811-33.231698 67.429434-59.701132 123.65283-79.601509 54.484528-19.900377 110.901132-19.900377 182.194717-8.307925 42.50566 8.501132 78.055849 26.662642 107.809812 52.938868 15.263396 13.524528 26.855849 30.913208 32.845283 50.42717 5.409811 17.581887 17.968302 31.299623 35.356981 42.312453 39.41434 18.547925 92.739623 22.412075 141.621132 14.683773 1.54566-0.386415 3.091321-0.579623 4.636981-0.579622 17.775094-0.966038 33.618113 1.159245 47.529057 6.762264 19.320755 7.728302 29.367547 26.276226 28.594717 44.630943z" fill="#DEDFFB" p-id="3314"></path><path d="M783.224755 908.655094l-1.352453 0.946717c-2.588981 1.738868-5.351849 3.226566-8.249962 4.405132-67.371472 27.474113-149.600604 44.688906-227.598491 54.387925-115.19034 13.427925-220.778264 6.781585-314.425962-24.82717-79.640151-23.455396-131.091321-59.759094-148.035623-111.809207a86.325132 86.325132 0 0 1-4.211924-26.778566v-83.716831l35.84 3.226566c25.754566-24.769208 61.633208-45.094642 107.133585-61.18883 54.581132-19.97766 111.017057-19.900377 182.272-8.423849 42.447698 8.578415 77.997887 26.681962 107.693886 52.938868a111.789887 111.789887 0 0 1 32.961208 50.562415c0.52166 1.738868 1.139925 3.439094 1.79683 5.100679l255.884076 23.088302 0.038641 81.359698a45.403774 45.403774 0 0 1-19.745811 40.747472z" fill="#DEDFFB" p-id="3315"></path><path d="M783.224755 822.426566l-1.352453 0.927396c-2.588981 1.738868-5.351849 3.226566-8.249962 4.405132-67.371472 27.474113-149.600604 44.688906-227.598491 54.387925-115.19034 13.427925-220.797585 6.800906-314.445283-24.82717-79.62083-23.455396-131.091321-59.739774-148.016302-111.789887-9.158038-28.15034-3.129962-58.928302 15.050868-82.287094 25.889811-33.231698 67.429434-59.623849 123.710793-79.543547 54.581132-19.97766 111.017057-19.900377 182.272-8.423849 42.447698 8.578415 77.997887 26.681962 107.674566 52.938868a111.789887 111.789887 0 0 1 32.961207 50.562415c5.409811 17.562566 17.852377 31.24166 35.31834 42.157887 39.317736 18.528604 92.700981 22.431396 141.56317 14.683773 1.54566-0.231849 3.091321-0.425057 4.656301-0.50234 17.736453-0.908075 33.656755 1.217208 47.509736 6.762265 33.946566 13.582491 39.085887 59.817057 8.94551 80.548226z" fill="#F3F1FC" p-id="3316"></path><path d="M528.094189 731.193962l-0.328453-0.193207c-17.755774-9.273962-32.574792-21.310792-42.312453-38.119849a191.893736 191.893736 0 0 0-2.531019-6.627019c-14.297358-35.550189-51.393208-56.860981-89.088-50.118038h-0.038641c-1.680906 0.309132-3.342491 0.77283-4.965434 1.410415-9.486491 3.690264-17.948981 9.119396-25.252227 16.422642a36.129811 36.129811 0 0 0-10.433207 22.740528c4.675623-3.207245 9.660377-5.854189 15.012226-7.921509 1.622943-0.637585 3.284528-1.120604 4.965434-1.429736h0.038642c37.714113-6.742943 74.809962 14.567849 89.088 50.118037 0.869434 2.163925 1.719547 4.366491 2.531018 6.627019 9.73766 16.809057 24.556679 28.845887 42.312453 38.100529l0.328453 0.212528c3.110642 1.874113 5.429132 4.250566 7.052076 6.91683 0.483019 0.019321 0.966038 0.038642 1.468377 0.019321 0.850113-0.019321 1.680906-0.057962 2.511698-0.115925 20.151547-1.139925 26.952453-27.648 9.660377-38.061886z" fill="#DEDFFB" p-id="3317"></path><path d="M507.420981 762.416302l-0.328453-0.193208c-17.755774-9.273962-32.574792-21.291472-42.312453-38.119849a191.971019 191.971019 0 0 0-2.511698-6.627019c-14.297358-35.550189-51.393208-56.860981-89.10732-50.118037h-0.038642c-1.680906 0.309132-3.342491 0.792151-4.965434 1.429736a73.283623 73.283623 0 0 0-15.012226 7.921509c-0.714868 9.042113 1.932075 18.316075 8.076075 25.754566 12.674415 15.340679 33.328302 27.725283 56.030189 39.375698 28.324226 12.906264 60.319396 21.407396 94.536453 27.242264 0.888755 0.135245 1.777509 0.231849 2.685585 0.25117a20.383396 20.383396 0 0 0-7.052076-6.91683z" fill="#B0B8CF" p-id="3318"></path><path d="M167.491623 650.529811c24.769208-14.393962 65.052981-14.393962 89.996075 0 8.559094 4.946113 14.200755 10.935547 16.90566 17.272755 5.197283-12.152755-0.444377-25.561358-16.90566-35.06717-24.923774-14.393962-65.226868-14.393962-89.996075 0-16.268075 9.46717-21.793811 22.759849-16.615849 34.854642 2.666264-6.259925 8.192-12.172075 16.615849-17.060227z" fill="#F45170" p-id="3319"></path><path d="M167.781434 684.882113c24.923774 14.374642 65.226868 14.374642 89.996075 0 8.423849-4.907472 13.949585-10.819623 16.615849-17.079547-2.704906-6.337208-8.346566-12.326642-16.90566-17.272755-24.923774-14.393962-65.226868-14.393962-89.996075 0-8.423849 4.888151-13.949585 10.819623-16.615849 17.060227 2.704906 6.337208 8.346566 12.326642 16.90566 17.292075z" fill="#DF3260" p-id="3320"></path><path d="M165.965283 750.302189c25.6-14.876981 67.255547-14.876981 93.029434 0 8.868226 5.12 14.683774 11.321962 17.485283 17.871698 5.37117-12.558491-0.463698-26.430792-17.485283-36.245736-25.773887-14.876981-67.429434-14.876981-93.029434 0-16.809057 9.756981-22.528 23.513358-17.195472 36.013887 2.782189-6.453132 8.501132-12.577811 17.195472-17.639849z" fill="#BF7D5A" p-id="3321"></path><path d="M166.274415 785.813736c25.773887 14.876981 67.429434 14.876981 93.029434 0 8.69434-5.062038 14.413283-11.186717 17.195472-17.639849-2.82083-6.569057-8.636377-12.751698-17.504604-17.871698-25.773887-14.876981-67.429434-14.876981-93.029434 0-8.69434 5.062038-14.413283 11.186717-17.195472 17.639849 2.82083 6.569057 8.636377 12.751698 17.504604 17.871698z" fill="#8A4852" p-id="3322"></path><path d="M307.393208 817.074717c25.116981-14.606491 65.941736-14.606491 91.193962 0 8.69434 5.004075 14.393962 11.070792 17.137509 17.485283 5.255245-12.307321-0.463698-25.889811-17.137509-35.511547-25.252226-14.58717-66.076981-14.58717-91.193962 0-16.461283 9.563774-22.064302 23.04966-16.809057 35.299019 2.704906-6.337208 8.307925-12.326642 16.809057-17.292076z" fill="#FFD06C" p-id="3323"></path><path d="M307.70234 851.852075c25.271547 14.58717 66.076981 14.58717 91.193962 0 8.501132-4.946113 14.104151-10.954868 16.828377-17.292075-2.743547-6.414491-8.462491-12.481208-17.137509-17.504604-25.252226-14.58717-66.076981-14.58717-91.193962 0-8.501132 4.965434-14.104151 10.954868-16.809057 17.292076 2.724226 6.414491 8.44317 12.500528 17.118189 17.523924z" fill="#FEBC1F" p-id="3324"></path><path d="M492.350792 825.228075c24.286189-14.104151 63.797132-14.104151 88.237887 0 8.404528 4.849509 13.910943 10.74234 16.577208 16.944302 5.100679-11.920906-0.444377-25.059019-16.577208-34.390943-24.440755-14.104151-63.951698-14.104151-88.237887 0-15.939623 9.273962-21.349434 22.315472-16.287396 34.197736 2.627623-6.144 8.037434-11.959547 16.287396-16.751095z" fill="#78E75A" p-id="3325"></path><path d="M492.640604 858.904151c24.440755 14.104151 63.951698 14.104151 88.237887 0 8.249962-4.791547 13.679094-10.607094 16.287396-16.731774-2.646943-6.201962-8.172679-12.094792-16.577208-16.944302-24.440755-14.104151-63.951698-14.104151-88.237887 0-8.249962 4.791547-13.659774 10.607094-16.287396 16.731774 2.646943 6.201962 8.192 12.094792 16.577208 16.944302z" fill="#5EC363" p-id="3326"></path><path d="M658.837736 780.075472c23.532679-13.679094 61.826415-13.679094 85.494339 0 8.134038 4.694943 13.485887 10.394566 16.055548 16.422641 4.946113-11.553811-0.425057-24.286189-16.055548-33.308981-23.687245-13.679094-61.96166-13.679094-85.494339 0-15.456604 8.96483-20.692528 21.600604-15.785057 33.096453 2.531019-5.931472 7.786264-11.553811 15.785057-16.210113z" fill="#8FABFE" p-id="3327"></path><path d="M659.127547 812.708226c23.667925 13.679094 61.94234 13.679094 85.475019 0 7.998792-4.636981 13.254038-10.278642 15.785057-16.229434-2.56966-5.989434-7.921509-11.708377-16.055548-16.40332-23.687245-13.679094-61.96166-13.679094-85.494339 0-7.998792 4.636981-13.254038 10.278642-15.785057 16.229434 2.56966 5.989434 7.921509 11.708377 16.074868 16.40332z" fill="#678AEE" p-id="3328"></path><path d="M705.864453 654.973585c-74.288302 57.382642-91.039396 46.195925-91.039396 46.195924s-20.209509 2.318491-7.689661-14.819018c3.477736-4.810868 7.110038-8.848906 10.201359-12.693736 3.265208-4.057358 6.337208-8.076075 8.46249-13.080151l0.193208-0.193208c2.704906-6.762264 4.057358-15.398642 2.704905-28.691321-3.284528-32.903245-18.68317-79.09917 28.092378-102.979622l80.838038 30.623396 8.46249 3.265208s34.062491 35.221736-40.225811 92.391849z" fill="#BF7D5A" p-id="3329"></path><path d="M737.627774 559.335849c-3.477736 15.205434-15.591849 35.608151-46.949434 59.662491-30.043774 23.281509-50.813585 35.221736-64.685887 41.385056 2.704906-6.762264 4.057358-15.398642 2.704905-28.691321-3.284528-32.903245-18.68317-79.09917 28.092378-102.979622z" fill="#DBA660" p-id="3330"></path><path d="M924.92317 159.164377c-38.293736 3.84483-76.201057-9.273962-106.128906-32.768a19.243472 19.243472 0 0 1-6.627019-9.042113c-2.048-0.888755-3.864151-1.990038-6.047396-2.743547a24.402113 24.402113 0 0 1-3.960755-1.835472L661.349434 476.894189c3.825509 3.419774 5.62234 8.752302 1.912755 14.35532-17.330717 26.140981 11.78566 39.41434 31.125736 50.871548 13.717736 8.114717 65.381434 34.390943 72.684679 4.521056 1.680906-6.878189 7.303245-9.196679 12.732377-8.501132l19.069585-49.383849 127.690868-330.056453c-0.598943 0.096604-1.024 0.386415-1.642264 0.463698z" fill="#CC104A" p-id="3331"></path><path d="M851.079245 136.018113l-111.905811 289.560151c-3.477736 9.273962-0.966038 20.673208 8.501132 32.458868 11.78566 14.297358 31.106415 25.503396 51.2 30.72l134.491774-347.676981c-25.059019 11.51517-62.019623 9.46717-82.287095-5.062038z" fill="#DF3260" p-id="3332"></path><path d="M934.544906 83.175849c18.992302 23.223547 10.471849 45.983396-18.93434 50.871547-29.483472 4.888151-68.704604-9.98883-87.677585-33.212377-18.972981-23.223547-10.49117-45.983396 18.972981-50.871547 29.425509-4.86883 68.685283 9.98883 87.658264 33.212377z" fill="#DEDFFB" p-id="3333"></path><path d="M791.648604 507.169811l-19.108227 49.789585c-3.477736 9.061434-12.886943 15.843019-27.493434 18.219472-29.425509 4.791547-68.665962-10.085434-87.658264-33.212377-9.563774-11.631094-12.191396-23.146264-8.694339-32.323623l19.030943-49.65434c-3.516377 9.196679-0.154566 20.808453 9.409208 32.458868 19.011623 23.107623 58.232755 37.984604 87.677584 33.193057 14.58717-2.376453 23.378113-9.409208 26.85585-18.470642z" fill="#F3F1FC" p-id="3334"></path><path d="M943.200604 115.267623l-19.127547 49.770264c-3.439094 9.061434-12.886943 15.843019-27.474114 18.219471-29.44483 4.791547-68.665962-10.085434-87.677585-33.212377-9.563774-11.631094-12.172075-23.146264-8.675018-32.304302l19.030943-49.654339c-3.516377 9.177358-0.154566 20.789132 9.409208 32.420226 19.011623 23.126943 58.232755 38.003925 87.677584 33.212377 14.58717-2.376453 23.378113-9.409208 26.85585-18.45132z" fill="#F3F1FC" p-id="3335"></path></svg>