<?xml version="1.0" standalone="no"?><!DOCTYPE svg PUBLIC "-//W3C//DTD SVG 1.1//EN" "http://www.w3.org/Graphics/SVG/1.1/DTD/svg11.dtd"><svg t="1747618905703" class="icon" viewBox="0 0 1024 1024" version="1.1" xmlns="http://www.w3.org/2000/svg" p-id="3483" xmlns:xlink="http://www.w3.org/1999/xlink" width="200" height="200"><path d="M753.374189 226.246038l-402.258114 232.235471-80.953962-47.142641-0.386415-109.935094c0-18.741132 13.138113-41.346415 29.367547-50.813585l343.523019-198.230944c8.114717-4.636981 15.456604-5.216604 20.866415-2.125283l80.567547 46.949434c5.409811 2.898113 8.887547 9.46717 8.887548 18.93434z" fill="#1D2943" p-id="3484"></path><path d="M360.563925 973.630792l-80.87668-47.026717c-5.409811-3.014038-8.578415-9.544453-8.578415-18.741132l-0.966038-496.446792 81.050566 47.046038 32.265661 491.52c0 9.216-28.131019 20.634566-22.895094 23.648603z" fill="#DEDFFB" p-id="3485"></path><path d="M351.154717 458.50083l-80.973283-47.046038 402.219472-232.235471 80.953962 47.065358z" fill="#82C6E0" p-id="3486"></path><path d="M753.374189 226.284679l0.850113 496.350189c0.057962 18.663849-13.080151 41.385057-29.309585 50.774943L381.526943 971.640755c-16.248755 9.389887-29.464151 1.854792-29.522113-16.809057l-0.850113-496.350189z" fill="#F3F1FC" p-id="3487"></path><path d="M740.815698 95.830943c-4.057358-0.966038-8.69434-0.386415-13.717736 1.738868 5.023396-2.318491 9.853585-2.704906 13.717736-1.738868zM744.486642 97.376604a12.326642 12.326642 0 0 0-3.670944-1.545661c0.77283 0.193208 1.54566 0.386415 2.125283 0.579623 0.579623 0.386415 0.966038 0.579623 1.545661 0.966038z" fill="#1D2943" p-id="3488"></path><path d="M753.374189 226.246038l-402.258114 232.235471-80.953962-47.142641-0.386415-109.935094c0-18.741132 13.138113-41.346415 29.367547-50.813585l343.523019-198.230944c8.114717-4.636981 15.456604-5.216604 20.866415-2.125283l79.408302 46.176604a20.924377 20.924377 0 0 0-15.843019 1.159245c5.023396-2.125283 9.660377-2.704906 13.717736-1.738868 1.352453 0.386415 2.511698 0.77283 3.670944 1.545661 5.216604 3.091321 8.501132 9.46717 8.501132 18.741132z" fill="#1D2943" p-id="3489"></path><path d="M740.815698 95.830943c-4.057358-0.966038-8.69434-0.386415-13.717736 1.738868 5.023396-2.318491 9.853585-2.704906 13.717736-1.738868zM744.486642 97.376604a12.326642 12.326642 0 0 0-3.670944-1.545661c0.77283 0.193208 1.54566 0.386415 2.125283 0.579623 0.579623 0.386415 0.966038 0.579623 1.545661 0.966038z" fill="#1D2943" p-id="3490"></path><path d="M744.505962 97.415245c-5.409811-3.187925-12.713057-2.704906-20.982339 1.893434L380.116528 297.636226c-16.210113 9.370566-29.406189 32.091774-29.232302 50.852227l0.309132 109.973736-81.050566-47.046038-0.309132-109.973736c0-18.741132 13.022189-41.46234 29.386868-50.852226L642.646943 52.281962c8.095396-4.61766 15.572528-5.100679 20.808453-2.06732z" fill="#4C5C75" p-id="3491"></path><path d="M723.542943 99.385962c16.229434-9.370566 29.464151-1.854792 29.522114 16.809057l0.309132 110.070339-402.219472 232.235472-0.328453-110.070339c-0.038642-18.663849 13.080151-41.404377 29.328906-50.794265z" fill="#1D2943" p-id="3492"></path><path d="M604.797585 374.243019l-81.92 149.735849-14.490566-8.307925c-2.511698-1.54566-4.250566-5.023396-4.250566-9.660377l-0.193208-78.249057c0-9.46717 6.569057-21.059623 14.683774-25.696603l61.053585-35.356981c4.250566-2.318491 7.921509-2.511698 10.626415-0.966038z" fill="#C9CEE2" p-id="3493"></path><path d="M594.151849 375.209057c8.230642-4.752906 14.934943-0.927396 14.954264 8.539773l0.231849 78.287698c0.019321 9.46717-6.627019 20.98234-14.876981 25.735246l-60.956981 35.202415c-8.230642 4.752906-14.934943 0.946717-14.954264-8.520453l-0.231849-78.287698c-0.019321-9.46717 6.627019-21.00166 14.876981-25.754566z" fill="#B0B8CF" p-id="3494"></path><path d="M729.996075 301.983396l-81.92 149.735849-14.490566-8.307924c-2.511698-1.54566-4.250566-5.023396-4.250566-9.660378l-0.193207-78.249056c0-9.46717 6.375849-21.059623 14.683773-25.696604l61.053585-35.356981c4.057358-2.318491 7.921509-2.511698 10.626415-0.966038z" fill="#C9CEE2" p-id="3495"></path><path d="M719.331019 302.949434c8.230642-4.752906 14.934943-0.946717 14.954264 8.501132l0.231849 78.307019c0.019321 9.46717-6.627019 21.00166-14.85766 25.735245l-60.976302 35.202415c-8.230642 4.772226-14.934943 0.946717-14.954264-8.501132l-0.231849-78.307019c-0.019321-9.46717 6.64634-21.00166 14.876981-25.754566z" fill="#B0B8CF" p-id="3496"></path><path d="M484.236075 534.218868c0 9.46717-6.569057 21.059623-14.876981 25.696604l-60.860377 35.356981c-5.216604 2.898113-9.853585 2.511698-12.558491-0.579623 0.579623 0.579623 1.159245 1.159245 1.738868 1.545661l-14.297358-8.501133c-2.704906-1.54566-4.443774-4.636981-4.443774-9.467169v-78.442264c-0.193208-9.273962 6.375849-20.866415 14.683774-25.696604l61.053585-35.163774c4.057358-2.318491 7.728302-2.704906 10.433207-0.966038l14.104151 8.114717c2.898113 1.352453 4.830189 4.830189 4.830189 9.853585z" fill="#FEBC1F" p-id="3497"></path><path d="M479.792302 446.309434l-82.113208 149.929057-14.297358-8.501133c-2.704906-1.54566-4.443774-4.636981-4.443774-9.467169v-78.442264c-0.193208-9.273962 6.375849-20.866415 14.683774-25.696604l61.053585-35.163774c4.057358-2.318491 7.728302-2.704906 10.433207-0.966038z" fill="#FFD06C" p-id="3498"></path><path d="M469.069283 607.154717c8.230642-4.752906 14.934943-0.927396 14.954264 8.539774l0.231849 78.287698c0.019321 9.46717-6.627019 20.98234-14.876981 25.735245l-60.956981 35.202415c-8.230642 4.752906-14.934943 0.946717-14.954264-8.520453l-0.231849-78.287698c-0.019321-9.46717 6.627019-21.00166 14.876981-25.754566z" fill="#B0B8CF" p-id="3499"></path><path d="M479.75366 606.092075c-2.859472-1.584302-6.511094-1.255849-10.645735 1.120604l-61.014944 35.125132c-8.269283 4.772226-14.954264 16.364679-14.780377 25.735246l0.154566 78.34566c0 4.61766 1.738868 7.94083 4.289207 9.544453l-14.471245-8.423849c-2.531019-1.603623-4.289208-4.772226-4.289207-9.544453l-0.154567-78.34566c-0.154566-9.370566 6.511094-20.963019 14.780378-25.735246l61.014943-35.125132c4.134642-2.376453 7.786264-2.704906 10.49117-1.101283zM479.792302 765.874717l-82.113208 149.735849-14.297358-8.307924c-2.704906-1.54566-4.443774-4.830189-4.443774-9.660378v-78.249056c-0.193208-9.46717 6.375849-21.059623 14.683774-25.696604l61.053585-35.163774c4.057358-2.318491 7.728302-2.704906 10.433207-1.159245z" fill="#C9CEE2" p-id="3500"></path><path d="M469.069283 766.879396c8.230642-4.752906 14.934943-0.927396 14.954264 8.539774l0.231849 78.287698c0.019321 9.46717-6.627019 20.98234-14.876981 25.735245L408.440755 914.644528c-8.230642 4.752906-14.934943 0.946717-14.954264-8.520453l-0.231849-78.287698c-0.019321-9.46717 6.627019-21.00166 14.876981-25.754566zM594.151849 535.474717c8.230642-4.752906 14.934943-0.946717 14.954264 8.520453l0.231849 78.307019c0.019321 9.46717-6.627019 20.98234-14.876981 25.735245l-60.956981 35.202415c-8.230642 4.752906-14.934943 0.927396-14.954264-8.539774l-0.231849-78.287698c-0.019321-9.46717 6.627019-20.98234 14.876981-25.735245z" fill="#B0B8CF" p-id="3501"></path><path d="M604.816906 534.412075c-2.704906-1.584302-6.511094-1.27517-10.645736 1.120604l-61.014944 35.105812c-8.269283 4.772226-14.780377 16.364679-14.780377 25.754566l0.154566 78.34566c0 4.59834 1.738868 7.921509 4.289208 9.525132l-14.471246-8.423849c-2.531019-1.584302-4.289208-4.772226-4.289207-9.525132l-0.154566-78.34566c0-9.370566 6.511094-20.98234 14.780377-25.754566l61.014944-35.105812c4.134642-2.395774 7.960151-2.704906 10.665056-1.120604z" fill="#C9CEE2" p-id="3502"></path><path d="M594.151849 535.474717c8.230642-4.752906 14.934943-0.946717 14.954264 8.520453l0.231849 78.307019c0.019321 9.46717-6.627019 20.98234-14.876981 25.735245l-60.956981 35.202415c-8.230642 4.752906-14.934943 0.927396-14.954264-8.539774l-0.231849-78.287698c-0.019321-9.46717 6.627019-20.98234 14.876981-25.735245z" fill="#B0B8CF" p-id="3503"></path><path d="M604.816906 534.412075c-2.704906-1.584302-6.511094-1.27517-10.645736 1.120604l-61.014944 35.105812c-8.269283 4.772226-14.780377 16.364679-14.780377 25.754566l0.154566 78.34566c0 4.59834 1.738868 7.921509 4.289208 9.525132l-14.471246-8.423849c-2.531019-1.584302-4.289208-4.772226-4.289207-9.525132l-0.154566-78.34566c0-9.370566 6.511094-20.98234 14.780377-25.754566l61.014944-35.105812c4.134642-2.395774 7.960151-2.704906 10.665056-1.120604z" fill="#C9CEE2" p-id="3504"></path><path d="M604.797585 694.194717l-81.92 149.735849-14.490566-8.307924c-2.511698-1.738868-4.250566-4.830189-4.250566-9.660378l-0.193208-78.249056c0-9.46717 6.569057-21.059623 14.683774-25.696604l61.053585-35.163774c4.250566-2.511698 7.921509-2.704906 10.626415-1.159245z" fill="#C9CEE2" p-id="3505"></path><path d="M594.151849 695.199396c8.230642-4.752906 14.934943-0.927396 14.954264 8.520453l0.231849 78.307019c0.019321 9.46717-6.627019 20.98234-14.876981 25.735245l-60.956981 35.202415c-8.230642 4.752906-14.934943 0.927396-14.954264-8.520453l-0.231849-78.307018c-0.019321-9.46717 6.627019-20.98234 14.876981-25.735246z" fill="#B0B8CF" p-id="3506"></path><path d="M469.069283 607.676377c8.230642-4.733585 14.934943-0.927396 14.954264 8.539774l0.231849 78.287698c0.019321 9.46717-6.627019 21.00166-14.876981 25.754566L408.440755 755.441509c-8.230642 4.752906-14.934943 0.927396-14.954264-8.539773l-0.231849-78.287698c-0.019321-9.46717 6.627019-20.98234 14.876981-25.754566z" fill="#B0B8CF" p-id="3507"></path><path d="M479.75366 606.71034c-2.859472-1.584302-6.511094-1.429736-10.645735 0.966037l-61.014944 35.279698c-8.269283 4.752906-14.954264 16.210113-14.780377 25.735246l0.154566 78.191094c0 4.752906 1.738868 8.114717 4.289207 9.525132l-14.471245-8.249962c-2.531019-1.603623-4.289208-4.926792-4.289207-9.699019l-0.154567-78.191094c-0.154566-9.525132 6.511094-20.98234 14.780378-25.735246l61.014943-35.279698c4.134642-2.395774 7.786264-2.55034 10.49117-0.966037z" fill="#C9CEE2" p-id="3508"></path><path d="M735.444528 201.090415c0 8.095396-5.718943 17.948981-12.713056 22.083623l-341.011321 196.723924c-4.946113 2.859472-9.080755 2.067321-11.302642-1.429736a10.375245 10.375245 0 0 1-1.429735-5.873509l-0.154566-66.115623c-0.154566-8.114717 5.564377-17.968302 12.713056-21.929056L722.403019 127.671547c1.603623-0.792151 3.033358-1.27517 4.289207-1.603622 4.926792-0.77283 8.597736 2.55034 8.597736 8.906867z" fill="#78E75A" p-id="3509"></path><path d="M446.096906 640.483019l0.077283 27.821887 24.344151-14.084831 0.038641 15.86234-24.344151 14.06551 0.077283 27.628679-14.741736 8.501132-0.077283-27.628679-24.498717 14.162113-0.057962-15.86234 24.518038-14.162113-0.077283-27.802566z" p-id="3510"></path><path d="M455.699321 800.420226l9.505811 5.409812-18.161509 31.299622 16.577207 9.428529-8.636377 14.973585-16.577208-9.46717-16.615849 28.787924-9.505811-5.409811 16.615849-28.787925-16.577208-9.428528 8.636378-14.973585 16.731773 9.370566z" p-id="3511"></path><path d="M585.129057 604.198642l-42.602265 24.537358v-16.596528l42.467019-24.537359z" p-id="3512"></path><path d="M646.723623 767.033962c0.579623 0.579623 1.159245 1.159245 1.932075 1.545661-0.386415-0.193208-0.77283-0.386415-0.966038-0.579623a2.318491 2.318491 0 0 1-0.966037-0.966038z" fill="#DF3260" p-id="3513"></path><path d="M743.134189 700.956981c0 10.433208-7.148679 22.991698-16.229434 28.208302l-66.656604 38.448302c-4.636981 2.704906-8.69434 2.898113-11.592453 0.966038-0.77283-0.386415-1.352453-0.966038-1.932075-1.545661 0.193208 0.386415 0.579623 0.77283 0.966037 0.966038l-14.683773-8.307925c-3.091321-1.932075-4.830189-5.409811-4.830189-10.626415l-0.579623-226.632452c0-10.24 7.148679-22.798491 16.229434-28.015095l66.463397-38.448302c4.636981-2.511698 8.69434-2.898113 11.592452-1.159245l15.263397 8.887547c3.284528 1.54566 5.409811 5.216604 5.409811 10.819623z" fill="#DF3260" p-id="3514"></path><path d="M646.723623 767.033962c0.579623 0.579623 1.159245 1.159245 1.932075 1.545661-0.386415-0.193208-0.77283-0.386415-0.966038-0.579623a2.318491 2.318491 0 0 1-0.966037-0.966038z" fill="#DF3260" p-id="3515"></path><path d="M737.820981 464.026566c-3.014038-1.738868-7.148679-1.429736-11.592453 1.120604l-66.753207 38.448302c-8.887547 5.255245-16.210113 17.813736-16.210113 28.131019l0.637584 226.613132c0 5.081358 1.912755 8.732981 4.772227 10.336603l-15.727094-9.080754c-3.014038-1.738868-4.772226-5.390491-4.772227-10.471849l-0.637585-226.613132c0-10.317283 7.148679-22.875774 16.229434-28.131019l66.56-38.448302c4.61766-2.55034 8.752302-2.859472 11.592453-1.120604z" fill="#F45170" p-id="3516"></path><path d="M726.170566 465.185811c9.022792-5.216604 16.326038-1.043321 16.364679 9.293283l0.618264 226.516529c0.038642 10.336604-7.245283 22.933736-16.229434 28.131019l-66.637283 38.448301c-8.984151 5.216604-16.306717 1.024-16.345358-9.293283l-0.618264-226.516528c-0.038642-10.355925 7.245283-22.914415 16.229434-28.111698z" fill="#DF3260" p-id="3517"></path><path d="M662.837132 608.043472l60.66717-35.009208 0.019321 15.128151-60.628529 35.009208z" fill="#FFFFFF" p-id="3518"></path><path d="M662.991698 659.726491l-0.038641-15.128151 60.647849-35.009208 0.038641 15.128151z" fill="#FFFFFF" p-id="3519"></path><path d="M585.283623 747.867774l0.057962 16.40332-42.969359 24.807849-0.057962-16.422641z" p-id="3520"></path><path d="M558.963521 798.285634a5.834868 10.066113 30.13 1 0 10.105646-17.412135 5.834868 10.066113 30.13 1 0-10.105646 17.412135Z" p-id="3521"></path><path d="M563.818264 738.477887c3.864151-2.241208 7.148679-0.560302 7.148679 3.902792 0.019321 4.636981-3.226566 10.24-7.090717 12.500529-4.057358 2.318491-7.148679 0.386415-7.168-4.250566 0-4.463094 3.091321-9.814943 7.110038-12.152755z" p-id="3522"></path><path d="M469.069283 447.430038c8.230642-4.752906 14.934943-0.927396 14.954264 8.520453l0.231849 78.307018c0.019321 9.46717-6.627019 20.98234-14.876981 25.735246l-60.956981 35.202415c-8.230642 4.752906-14.934943 0.927396-14.954264-8.520453l-0.231849-78.307019c-0.019321-9.46717 6.627019-20.98234 14.876981-25.735245z" fill="#FEBC1F" p-id="3523"></path></svg>