<?xml version="1.0" standalone="no"?><!DOCTYPE svg PUBLIC "-//W3C//DTD SVG 1.1//EN" "http://www.w3.org/Graphics/SVG/1.1/DTD/svg11.dtd"><svg t="1747618941169" class="icon" viewBox="0 0 1024 1024" version="1.1" xmlns="http://www.w3.org/2000/svg" p-id="4330" xmlns:xlink="http://www.w3.org/1999/xlink" width="200" height="200"><path d="M855.078642 332.838642c-33.734038 9.583094-71.873208 3.670943-104.757133-27.358189-95.367245-90.054038-174.447094-46.640302-268.655094 19.456-73.554113 51.605736-144.519245-3.149283-160.439547-72.066415L113.045736 373.953208h-0.193208l-0.193207 0.193207 0.386415 0.193208-0.966038 347.580377 431.62566 249.237736 367.287548-213.49434 0.966037-347.966792-56.996226-32.845283z" fill="#AA6256" p-id="4331"></path><path d="M912.016906 409.657962L544.613434 623.384151 112.620679 374.107774 480.043472 160.362264z" fill="#DBA660" p-id="4332"></path><path d="M163.704755 374.01117L480.120755 189.96166 860.93283 409.735245l-316.396679 184.06883z" fill="#BF7D5A" p-id="4333"></path><path d="M480.043472 190.251472v366.321509L163.84 374.127094zM619.829132 376.368302v-46.949434l-18.779774-11.090113v68.298868z" fill="#AA6256" p-id="4334"></path><path d="M619.829132 376.368302l-18.779774 10.24 173.30717 100.757736V466.016604z" fill="#DBA660" p-id="4335"></path><path d="M619.829132 329.418868v46.949434l154.527396 89.648302 0.850114-46.949434z" fill="#8A4852" p-id="4336"></path><path d="M782.258717 455.757283l-22.199547 41.829434-16.229434-19.649208z" fill="#DBA660" p-id="4337"></path><path d="M660.422038 60.435321l-1.313812 466.924679c0 1.932075-1.313811 3.864151-37.810717-14.297358L335.756075 676.806038c32.458868 20.518642 31.763321 21.658566 31.763321 22.721207l1.313812-466.847396c0-1.043321 0.714868-2.183245 2.202566-3.072L656.557887 65.883774c2.55034-1.487698 3.864151-3.419774 3.864151-5.429132z" fill="#FEBC1F" p-id="4338"></path><path d="M724.992 97.763019l-1.333132 466.847396c0 1.932075-1.313811 3.864151-3.864151 5.351849l-304.050717 174.524378 1.313811-466.847397 304.070038-174.505056c2.531019-1.507019 3.864151-3.439094 3.864151-5.37117z" fill="#FEBC1F" p-id="4339"></path><path d="M406.083623 277.639245l-1.217208 466.847397-72.278943-41.732831c-1.584302-0.888755-2.29917-2.028679-2.29917-3.168603l1.333132-466.654189c0 1.043321 0.77283 2.183245 2.279849 2.975396z" fill="#FFD06C" p-id="4340"></path><path d="M347.000755 691.818264l41.249811 23.80317 1.139925-428.360453-41.172529-23.82249z" fill="#FEBC1F" p-id="4341"></path><path d="M417.077132 277.639245l-1.29449 466.828076a12.094792 12.094792 0 0 1-10.954868 0l1.29449-466.828076c3.033358 1.738868 7.94083 1.738868 10.954868 0z" fill="#FFD06C" p-id="4342"></path><path d="M721.050566 92.295245c5.158642 2.975396 5.255245 7.805585 0.077283 10.819623L417.077132 277.639245a12.094792 12.094792 0 0 1-10.954868 0l-72.259622-41.694188c-3.033358-1.738868-3.052679-4.59834-0.038642-6.356529L637.855396 55.064151c5.197283-2.994717 13.466566-2.994717 18.663849 0 5.158642 2.975396 5.197283 7.766943 0 10.780981l-285.483471 163.743396c-3.014038 1.738868-2.936755 4.559698 0.077283 6.317887l34.951245 20.132227a11.978868 11.978868 0 0 0 10.896906 0.038641l285.483471-163.743396c5.197283-3.014038 13.466566-3.014038 18.625208-0.038642z" fill="#FFDE9B" p-id="4343"></path><path d="M675.202415 108.138264l-258.221887 147.919698a11.901585 11.901585 0 0 1-10.896905 0l-31.280302-18.045585 264.636377-150.624603z" fill="#FFFFFF" p-id="4344"></path><path d="M790.953057 135.902189L789.619925 602.807547c0 1.932075-1.313811 3.864151-37.810717-14.297358l-285.541434 163.743396c32.458868 20.499321 31.763321 21.639245 31.76332 22.701887l1.333132-466.847397c0-1.043321 0.695547-2.183245 2.183246-3.072l285.541434-163.704754c2.531019-1.507019 3.864151-3.439094 3.864151-5.448453z" fill="#3DB542" p-id="4345"></path><path d="M855.503698 173.249208l-1.333132 466.828075c0 1.932075-1.313811 3.864151-3.864151 5.351849L546.275019 819.97283l1.313811-466.828075L851.658868 178.601057c2.531019-1.487698 3.864151-3.419774 3.864151-5.351849z" fill="#5EC363" p-id="4346"></path><path d="M536.595321 353.125434l-1.217208 466.828075-72.278943-41.73283c-1.584302-0.869434-2.279849-2.009358-2.279849-3.149283l1.313811-466.673509c0 1.062642 0.77283 2.202566 2.279849 2.994717z" fill="#72D561" p-id="4347"></path><path d="M477.512453 767.285132l41.249811 23.822491 1.139925-428.379774-41.172529-23.80317z" fill="#5EC363" p-id="4348"></path><path d="M547.58883 353.106113l-1.29449 466.847396a12.094792 12.094792 0 0 1-10.954868 0l1.29449-466.847396c3.033358 1.738868 7.94083 1.738868 10.954868 0z" fill="#72D561" p-id="4349"></path><path d="M851.581585 167.762113c5.158642 2.975396 5.216604 7.805585 0.057962 10.819623l-304.050717 174.524377a12.094792 12.094792 0 0 1-10.954868 0l-72.259622-41.694188c-3.033358-1.738868-3.052679-4.59834-0.038642-6.356529L768.386415 130.55034c5.177962-3.014038 13.447245-3.014038 18.663849 0 5.139321 2.975396 5.177962 7.766943 0 10.76166L501.547472 305.074717c-3.014038 1.738868-2.936755 4.579019 0.096603 6.317887l34.931925 20.132226a11.978868 11.978868 0 0 0 10.896906 0.038642l285.502792-163.743397c5.177962-3.014038 13.447245-3.014038 18.605887-0.038641z" fill="#78E75A" p-id="4350"></path><path d="M805.714113 183.605132l-258.221887 147.919698a11.901585 11.901585 0 0 1-10.896905 0l-31.260981-18.026264L769.932075 162.854642z" fill="#FFFFFF" p-id="4351"></path><path d="M544.652075 623.190943l-431.683622-249.237735-0.985359 347.966792 431.683623 249.237736 367.326189-213.475019 0.985358-347.966792z" fill="#BF7D5A" p-id="4352"></path><path d="M911.939623 409.696604l-367.287548 229.916981-431.741584-265.660377 50.871547 0.173886 380.812075 219.734944 316.300076-184.165434z" fill="#DBA660" p-id="4353"></path><path d="M911.978264 409.735245l-0.966038 347.947472-367.345509 213.475019 0.985358-347.966793z" fill="#AA6256" p-id="4354"></path><path d="M544.652075 623.190943l-0.985358 347.966793-431.683623-249.237736 0.966038-347.966792z" fill="#BF7D5A" p-id="4355"></path><path d="M260.327849 584.124377v-46.949434l-18.799094-11.109434v68.298868z" fill="#AA6256" p-id="4356"></path><path d="M260.327849 584.124377l-18.799094 10.24 173.30717 100.738415v-21.349434z" fill="#DBA660" p-id="4357"></path><path d="M260.327849 537.155623v46.949434l154.508076 89.648301 0.850113-46.949433z" fill="#8A4852" p-id="4358"></path></svg>