<?xml version="1.0" standalone="no"?><!DOCTYPE svg PUBLIC "-//W3C//DTD SVG 1.1//EN" "http://www.w3.org/Graphics/SVG/1.1/DTD/svg11.dtd"><svg t="1747893003608" class="icon" viewBox="0 0 1024 1024" version="1.1" xmlns="http://www.w3.org/2000/svg" p-id="36628" xmlns:xlink="http://www.w3.org/1999/xlink" width="128" height="128"><path d="M512 0c282.4 0 512 229.6 512 512s-229.6 512-512 512S0 795.2 0 512C0 229.6 229.6 0 512 0z" fill="#324D5B" p-id="36629"></path><path d="M512 88c234.4 0 424 189.6 424 424s-189.6 424-424 424-424-189.6-424-424 189.6-424 424-424z" fill="#DFE1E2" p-id="36630"></path><path d="M496 464c35.2 0 64 28.8 64 64s-28.8 64-64 64-64-28.8-64-64 28.8-64 64-64z" fill="#BEBFC0" p-id="36631"></path><path d="M580.8 420.8l-256 256c-6.4 6.4-6.4 16.8 0 23.2 6.4 6.4 16.8 6.4 23.2 0l256-256c6.4-6.4 6.4-16.8 0-23.2-6.4-6.4-16.8-6.4-23.2 0z" fill="#E2574C" p-id="36632"></path><path d="M528 472.8l-87.2 88c5.6 9.6 13.6 17.6 23.2 23.2l87.2-88c-5.6-9.6-13.6-17.6-23.2-23.2z" fill="#C04A41" p-id="36633"></path><path d="M512 496h256c8.8 0 16 7.2 16 16s-7.2 16-16 16H512c-8.8 0-16-7.2-16-16s7.2-16 16-16zM403.2 360.8l132 132c12 12 12 30.4 0 42.4s-30.4 12-42.4 0L360.8 403.2c-12-12-12-30.4 0-42.4 11.2-12 30.4-12 42.4 0z" fill="#324D5B" p-id="36634"></path><path d="M512 448c35.2 0 64 28.8 64 64s-28.8 64-64 64-64-28.8-64-64 28.8-64 64-64z" fill="#E4E7E7" p-id="36635"></path><path d="M512 480c17.6 0 32 14.4 32 32s-14.4 32-32 32-32-14.4-32-32 14.4-32 32-32z" fill="#324D5B" p-id="36636"></path><path d="M512 88c-125.6 0-237.6 54.4-315.2 140.8C272 161.6 371.2 120 480 120c234.4 0 424 189.6 424 424 0 108.8-40.8 208-108.8 283.2C881.6 749.6 936 637.6 936 512c0-234.4-189.6-424-424-424z" fill="#CFD1D2" p-id="36637"></path></svg>