<?xml version="1.0" standalone="no"?><!DOCTYPE svg PUBLIC "-//W3C//DTD SVG 1.1//EN" "http://www.w3.org/Graphics/SVG/1.1/DTD/svg11.dtd"><svg t="1747618924923" class="icon" viewBox="0 0 1024 1024" version="1.1" xmlns="http://www.w3.org/2000/svg" p-id="4149" xmlns:xlink="http://www.w3.org/1999/xlink" width="200" height="200"><path d="M975.736755 529.002264l-313.962264 181.228679-74.384906-43.27849-201.129057 116.117736-337.92-196.298868v-16.036227l289.231698-167.124528 74.578114 43.278491 225.473207-130.221887 337.92 196.298868z" fill="#5094FF" p-id="4150"></path><path d="M695.836981 674.487547L357.955623 478.169358l279.764528-161.521509L975.601509 512.966038z" fill="#57B3FE" p-id="4151"></path><path d="M675.820679 686.08l-337.92-196.376151 20.054944-11.553811L695.836981 674.487547z" fill="#57B3FE" p-id="4152"></path><path d="M975.736755 512.966038l-273.002264 157.657358-337.92-196.492075-0.193208-75.737359 273.002264-157.464151 337.726793 196.298868z" fill="#DEDFFB" p-id="4153"></path><path d="M702.502642 594.808755L364.621283 398.451925l272.924981-157.580076L975.446943 437.228679z" fill="#F3F1FC" p-id="4154"></path><path d="M702.734491 670.526792l-337.92-196.35683-0.193208-75.737358L702.502642 594.828075z" fill="#E9E7FC" p-id="4155"></path><path d="M975.446943 437.228679l0.193208 75.737359-272.90566 157.560754-0.231849-75.718037z" fill="#DEDFFB" p-id="4156"></path><path d="M661.851774 710.230943L323.970415 513.874113l-0.25117-86.112604 337.90068 196.356831zM386.202566 783.128151L48.301887 586.771321l-0.038642-16.094189 337.881359 196.376151z" fill="#497BFE" p-id="4157"></path><path d="M675.569509 599.948075l0.25117 86.112604 20.016302-11.553811 279.764528-161.52151 0.057963 16.094189-313.807698 181.151396-0.231849-86.112603-275.417359 159.009811-0.057962-16.074868z" fill="#5094FF" p-id="4158"></path><path d="M451.33283 409.928453c4.096 2.357132 4.134642 6.221283 0.038642 8.597736a16.364679 16.364679 0 0 1-14.83834 0l-35.724075-20.634566c-4.115321-2.357132-4.134642-6.201962-0.038642-8.578415a14.954264 14.954264 0 0 1 7.41917-1.796831c2.704906 0 5.37117 0.598943 7.41917 1.77751zM471.580981 421.578868c4.115321 2.395774 4.134642 6.240604 0.038642 8.636377a16.422642 16.422642 0 0 1-14.876981 0c-4.134642-2.376453-4.153962-6.240604-0.057963-8.636377a16.403321 16.403321 0 0 1 14.876981 0zM716.181736 562.813585c4.134642 2.376453 4.134642 6.240604 0.038641 8.617057a16.364679 16.364679 0 0 1-14.876981 0c-4.115321-2.357132-4.134642-6.221283-0.038641-8.617057a16.403321 16.403321 0 0 1 14.876981 0zM695.933585 551.143849c4.115321 2.376453 4.153962 6.240604 0.057962 8.617057a16.364679 16.364679 0 0 1-14.838339 0l-35.724076-20.634566c-4.115321-2.376453-4.134642-6.221283-0.057962-8.597736a15.012226 15.012226 0 0 1 7.43849-1.77751c2.685585 0 5.37117 0.579623 7.41917 1.77751z" fill="#DEDFFB" p-id="4159"></path><path d="M520.269283 461.283019a13.215396 13.215396 0 0 1-11.920906 0c-3.303849-1.893434-3.303849-5.004075-0.057962-6.89751a13.447245 13.447245 0 0 1 11.920906 0c3.284528 1.893434 3.284528 5.004075 0.057962 6.89751z" fill="#DEDFFB" p-id="4160"></path><path d="M518.144 456.646038v5.487094a13.215396 13.215396 0 0 1-7.747623 0v-5.487094a13.83366 13.83366 0 0 0-0.289811-3.033359c-0.405736-3.091321-1.680906-5.429132-3.670943-6.491773-2.511698-1.487698-6.259925-0.985358-10.355925 1.410415-9.795623 5.699623-18.122868 20.016302-18.045585 31.299622l0.077283 29.618717c0 4.636981 1.410415 8.114717 3.941434 9.505812 2.531019 1.487698 6.279245 0.985358 10.375245-1.410415a3.864151 3.864151 0 0 1 5.274567 1.487698 3.902792 3.902792 0 0 1-1.410416 5.293887c-3.728906 2.125283-7.477132 3.245887-10.916226 3.245886a14.065509 14.065509 0 0 1-7.206642-1.912754c-5.004075-2.82083-7.824906-8.597736-7.824905-16.229434l-0.057962-29.599397c-0.077283-14.162113 9.583094-30.874566 21.929056-38.003924 6.627019-3.864151 13.041509-4.366491 18.103547-1.468377 4.250566 2.395774 6.91683 7.110038 7.612378 13.099471 0.154566 0.985358 0.212528 2.048 0.212528 3.187925z" fill="#4C5C75" p-id="4161"></path><path d="M566.948226 488.235472a13.215396 13.215396 0 0 1-11.920905 0c-3.303849-1.893434-3.303849-5.004075-0.057963-6.89751a13.447245 13.447245 0 0 1 11.920906 0c3.284528 1.893434 3.284528 5.004075 0.057962 6.89751z" fill="#DEDFFB" p-id="4162"></path><path d="M564.822943 483.598491v5.487094a13.215396 13.215396 0 0 1-7.747622 0v-5.506415a13.83366 13.83366 0 0 0-0.289812-3.014038c-0.405736-3.110642-1.680906-5.429132-3.670943-6.491774-2.511698-1.487698-6.259925-0.985358-10.355924 1.410416-9.795623 5.699623-18.122868 20.016302-18.045585 31.299622l0.077283 29.618717c0 4.636981 1.410415 8.114717 3.941434 9.505812 2.531019 1.487698 6.279245 0.985358 10.375245-1.410416a3.864151 3.864151 0 0 1 5.274566 1.487699 3.902792 3.902792 0 0 1-1.410415 5.293886c-3.728906 2.125283-7.477132 3.226566-10.916227 3.226566a14.065509 14.065509 0 0 1-7.206641-1.893434c-5.004075-2.82083-7.824906-8.597736-7.824906-16.229434l-0.057962-29.599396c-0.077283-14.162113 9.583094-30.874566 21.929057-38.003924 6.627019-3.864151 13.041509-4.366491 18.103547-1.468378 4.250566 2.395774 6.91683 7.110038 7.612377 13.099472 0.154566 0.985358 0.212528 2.048 0.212528 3.168604z" fill="#4C5C75" p-id="4163"></path><path d="M609.743698 512.946717a13.215396 13.215396 0 0 1-11.920906 0c-3.32317-1.912755-3.32317-5.023396-0.077283-6.91683 0.579623-0.270491 1.139925-0.560302 1.835472-0.77283a13.447245 13.447245 0 0 1 10.085434 0.77283c3.303849 1.912755 3.303849 5.023396 0.077283 6.91683z" fill="#DEDFFB" p-id="4164"></path><path d="M607.637736 508.290415v5.506415a13.215396 13.215396 0 0 1-7.766944 0v-5.506415a13.83366 13.83366 0 0 0-0.289811-3.033358c-0.425057-3.091321-1.680906-5.409811-3.670943-6.491774-2.531019-1.468377-6.259925-0.966038-10.355925 1.410415-9.795623 5.718943-18.122868 20.035623-18.045585 31.299623l0.057963 29.618717c0 4.656302 1.410415 8.114717 3.960754 9.525132 2.531019 1.487698 6.279245 0.985358 10.355925-1.410415a3.864151 3.864151 0 0 1 5.293887 1.487698 3.902792 3.902792 0 0 1-1.410415 5.274566c-3.748226 2.125283-7.477132 3.245887-10.935548 3.245887a14.065509 14.065509 0 0 1-7.18732-1.893434c-5.004075-2.82083-7.824906-8.617057-7.824906-16.229434l-0.077283-29.599396c-0.057962-14.181434 9.602415-30.893887 21.929057-38.003925 6.627019-3.864151 13.041509-4.366491 18.122867-1.487698 4.231245 2.395774 6.91683 7.129358 7.612378 13.118792 0.135245 0.985358 0.212528 2.048 0.212528 3.168604z" fill="#4C5C75" p-id="4165"></path><path d="M386.144604 767.033962L48.263245 570.696453l289.424906-167.085887 337.881358 196.35683z" fill="#57B3FE" p-id="4166"></path><path d="M453.786566 390.897509a3.516377 3.516377 0 0 1 1.27517-4.830188l191.043622-110.282868a3.516377 3.516377 0 1 1 3.535699 6.105358l-191.043623 110.302189a3.535698 3.535698 0 0 1-4.830189-1.294491zM497.606038 416.188377a3.516377 3.516377 0 0 1 1.27517-4.810868l191.062943-110.302188a3.535698 3.535698 0 0 1 3.516377 6.105358l-191.043622 110.32151a3.535698 3.535698 0 0 1-4.830189-1.313812zM541.425509 441.479245a3.516377 3.516377 0 0 1 1.294491-4.810868l191.024302-110.282868a3.516377 3.516377 0 1 1 3.516377 6.105359l-191.024302 110.302189a3.535698 3.535698 0 0 1-4.830188-1.294491zM585.22566 466.789434a3.516377 3.516377 0 0 1 1.294491-4.830189l191.043623-110.282868a3.516377 3.516377 0 1 1 3.535698 6.105359l-191.043623 110.302189a3.535698 3.535698 0 0 1-4.830189-1.294491zM629.064453 492.099623a3.516377 3.516377 0 0 1 1.27517-4.830189l191.043622-110.302189a3.516377 3.516377 0 1 1 3.535698 6.12468l-191.043622 110.282867a3.535698 3.535698 0 0 1-4.830189-1.275169zM672.864604 517.390491a3.516377 3.516377 0 0 1 1.29449-4.830189l191.043623-110.282868a3.516377 3.516377 0 1 1 3.535698 6.105358l-191.043623 110.302189a3.535698 3.535698 0 0 1-4.830188-1.29449zM716.703396 542.681358a3.516377 3.516377 0 0 1 1.27517-4.810867l191.043623-110.302189a3.516377 3.516377 0 1 1 3.535698 6.105358l-191.043623 110.32151a3.535698 3.535698 0 0 1-4.830189-1.313812z" fill="#DEDFFB" p-id="4167"></path></svg>